# xmcd
#
# Track frame offsets:
#	150
#	12040
#	26365
#	38925
#	49886
#	64183
#	76658
#	88729
#	100693
#	111824
#	124548
#	137455
#	151761
#	166236
#	179733
#	194037
#	206583
#	221791
#	234828
#	248036
#	259494
#	272098
#
# Disc length: 3831 seconds
#
# Revision: 1
# Processed by: cddbd v1.4PL0 Copyright (c) Steve Scherf et al.
# Submitted via: audiograbber 1.80
#
DISCID=2b0ef516
DTITLE=Gene Autry - Deep in the Heart of Texas
DYEAR=1900
DGENRE=
TTITLE0=Back In The Saddle Again
TTITLE1=No One To Call Me Darling
TTITLE2=It Makes No Difference Now
TTITLE3=I'm Thinking Tonight Of My Blue Eyes
TTITLE4=Mexicali Rose
TTITLE5=Deep In The Heart Of Texas
TTITLE6=(I've Got Spurs That) Jingle Jangle Jingle
TTITLE7=Blueberry Hill
TTITLE8=Red River Valley
TTITLE9=Have I Told You Lately That I Love You?
TTITLE10=Goodbye Little Darlin' Goodbye
TTITLE11=The Life Of Jimmy Rodgers
TTITLE12=Take Me Back To My Boots And Saddle
TTITLE13=Panhandle Pete
TTITLE14=The Old Trail
TTITLE15=At Mail Call Today
TTITLE16=The Last Round Up
TTITLE17=South Of The Border
TTITLE18=Yellow Rose Of Texas
TTITLE19=Dust
TTITLE20=Way Out West In Texas
TTITLE21=Tumbling Tumbleweeds
EXTD=
EXTT0=
EXTT1=
EXTT2=
EXTT3=
EXTT4=
EXTT5=
EXTT6=
EXTT7=
EXTT8=
EXTT9=
EXTT10=
EXTT11=
EXTT12=
EXTT13=
EXTT14=
EXTT15=
EXTT16=
EXTT17=
EXTT18=
EXTT19=
EXTT20=
EXTT21=
PLAYORDER=
